<svg width="160" height="42" viewBox="0 0 160 42" fill="none" xmlns="http://www.w3.org/2000/svg">
<path d="M58.856 30.083V15.707H53.264V13.163H67.544V15.707H61.952V30.083H58.856ZM67.5924 30.083V21.059C67.5924 20.547 67.5764 20.027 67.5444 19.499C67.5284 18.971 67.4884 18.459 67.4244 17.963H70.3284L70.6644 21.275H70.1844C70.3444 20.475 70.6084 19.811 70.9764 19.283C71.3604 18.755 71.8244 18.363 72.3684 18.107C72.9124 17.851 73.5044 17.723 74.1444 17.723C74.4324 17.723 74.6644 17.739 74.8404 17.771C75.0164 17.787 75.1924 17.827 75.3684 17.891L75.3444 20.531C75.0404 20.403 74.7764 20.323 74.5524 20.291C74.3444 20.259 74.0804 20.243 73.7604 20.243C73.0724 20.243 72.4884 20.387 72.0084 20.675C71.5444 20.963 71.1924 21.363 70.9524 21.875C70.7284 22.387 70.6164 22.971 70.6164 23.627V30.083H67.5924ZM81.6011 30.323C80.5451 30.323 79.6171 30.075 78.8171 29.579C78.0171 29.067 77.3931 28.339 76.9451 27.395C76.4971 26.451 76.2731 25.323 76.2731 24.011C76.2731 22.699 76.4971 21.579 76.9451 20.651C77.3931 19.707 78.0171 18.987 78.8171 18.491C79.6171 17.979 80.5451 17.723 81.6011 17.723C82.6251 17.723 83.5211 17.979 84.2891 18.491C85.0731 18.987 85.5931 19.659 85.8491 20.507H85.5851L85.8491 17.963H88.7291C88.6811 18.459 88.6331 18.963 88.5851 19.475C88.5531 19.987 88.5371 20.491 88.5371 20.987V30.083H85.5611L85.5371 27.587H85.8251C85.5691 28.419 85.0491 29.083 84.2651 29.579C83.4811 30.075 82.5931 30.323 81.6011 30.323ZM82.4411 28.019C83.3851 28.019 84.1451 27.691 84.7211 27.035C85.2971 26.363 85.5851 25.355 85.5851 24.011C85.5851 22.667 85.2971 21.667 84.7211 21.011C84.1451 20.355 83.3851 20.027 82.4411 20.027C81.4971 20.027 80.7371 20.355 80.1611 21.011C79.5851 21.667 79.2971 22.667 79.2971 24.011C79.2971 25.355 79.5771 26.363 80.1371 27.035C80.7131 27.691 81.4811 28.019 82.4411 28.019ZM92.6199 30.083V20.219H90.2919V17.963H93.4599L92.6199 18.731V16.883C92.6199 15.379 93.0039 14.243 93.7719 13.475C94.5559 12.707 95.6999 12.323 97.2039 12.323C97.5559 12.323 97.9239 12.347 98.3079 12.395C98.7079 12.443 99.0519 12.531 99.3399 12.659V15.011C99.1319 14.931 98.8839 14.867 98.5959 14.819C98.3079 14.771 98.0279 14.747 97.7559 14.747C97.3399 14.747 96.9639 14.827 96.6279 14.987C96.3079 15.147 96.0519 15.395 95.8599 15.731C95.6839 16.051 95.5959 16.483 95.5959 17.027V18.491L95.1639 17.963H98.7879V20.219H95.6199V30.083H92.6199ZM105.203 30.323C104.147 30.323 103.219 30.075 102.419 29.579C101.619 29.067 100.995 28.339 100.547 27.395C100.099 26.451 99.8746 25.323 99.8746 24.011C99.8746 22.699 100.099 21.579 100.547 20.651C100.995 19.707 101.619 18.987 102.419 18.491C103.219 17.979 104.147 17.723 105.203 17.723C106.227 17.723 107.123 17.979 107.891 18.491C108.675 18.987 109.195 19.659 109.451 20.507H109.187L109.451 17.963H112.331C112.283 18.459 112.235 18.963 112.187 19.475C112.155 19.987 112.139 20.491 112.139 20.987V30.083H109.163L109.139 27.587H109.427C109.171 28.419 108.651 29.083 107.867 29.579C107.083 30.075 106.195 30.323 105.203 30.323ZM106.043 28.019C106.987 28.019 107.747 27.691 108.323 27.035C108.899 26.363 109.187 25.355 109.187 24.011C109.187 22.667 108.899 21.667 108.323 21.011C107.747 20.355 106.987 20.027 106.043 20.027C105.099 20.027 104.339 20.355 103.763 21.011C103.187 21.667 102.899 22.667 102.899 24.011C102.899 25.355 103.179 26.363 103.739 27.035C104.315 27.691 105.083 28.019 106.043 28.019ZM115.405 30.083V12.419H118.405V30.083H115.405ZM127.279 35.459C126.159 35.459 125.143 35.339 124.231 35.099C123.335 34.859 122.535 34.491 121.831 33.995L122.479 31.835C122.943 32.139 123.423 32.387 123.919 32.579C124.415 32.771 124.927 32.915 125.455 33.011C125.983 33.107 126.519 33.155 127.063 33.155C128.183 33.155 129.015 32.875 129.559 32.315C130.119 31.771 130.399 30.987 130.399 29.963V27.059H130.639C130.383 27.891 129.863 28.555 129.079 29.051C128.311 29.547 127.423 29.795 126.415 29.795C125.327 29.795 124.375 29.555 123.559 29.075C122.759 28.579 122.135 27.875 121.687 26.963C121.239 26.051 121.015 24.979 121.015 23.747C121.015 22.515 121.239 21.451 121.687 20.555C122.135 19.643 122.759 18.947 123.559 18.467C124.375 17.971 125.327 17.723 126.415 17.723C127.439 17.723 128.327 17.971 129.079 18.467C129.847 18.947 130.359 19.603 130.615 20.435L130.399 20.291L130.639 17.963H133.543C133.479 18.459 133.431 18.963 133.399 19.475C133.367 19.987 133.351 20.491 133.351 20.987V29.603C133.351 31.507 132.831 32.955 131.791 33.947C130.767 34.955 129.263 35.459 127.279 35.459ZM127.231 27.491C128.191 27.491 128.951 27.171 129.511 26.531C130.087 25.875 130.375 24.947 130.375 23.747C130.375 22.547 130.087 21.627 129.511 20.987C128.951 20.347 128.191 20.027 127.231 20.027C126.255 20.027 125.479 20.347 124.903 20.987C124.327 21.627 124.039 22.547 124.039 23.747C124.039 24.947 124.327 25.875 124.903 26.531C125.479 27.171 126.255 27.491 127.231 27.491ZM141.273 30.323C140.217 30.323 139.289 30.075 138.489 29.579C137.689 29.067 137.065 28.339 136.617 27.395C136.169 26.451 135.945 25.323 135.945 24.011C135.945 22.699 136.169 21.579 136.617 20.651C137.065 19.707 137.689 18.987 138.489 18.491C139.289 17.979 140.217 17.723 141.273 17.723C142.297 17.723 143.193 17.979 143.961 18.491C144.745 18.987 145.265 19.659 145.521 20.507H145.257L145.521 17.963H148.401C148.353 18.459 148.305 18.963 148.257 19.475C148.225 19.987 148.209 20.491 148.209 20.987V30.083H145.233L145.209 27.587H145.497C145.241 28.419 144.721 29.083 143.937 29.579C143.153 30.075 142.265 30.323 141.273 30.323ZM142.113 28.019C143.057 28.019 143.817 27.691 144.393 27.035C144.969 26.363 145.257 25.355 145.257 24.011C145.257 22.667 144.969 21.667 144.393 21.011C143.817 20.355 143.057 20.027 142.113 20.027C141.169 20.027 140.409 20.355 139.833 21.011C139.257 21.667 138.969 22.667 138.969 24.011C138.969 25.355 139.249 26.363 139.809 27.035C140.385 27.691 141.153 28.019 142.113 28.019ZM151.452 30.083V21.059C151.452 20.547 151.436 20.027 151.404 19.499C151.388 18.971 151.348 18.459 151.284 17.963H154.188L154.524 21.275H154.044C154.204 20.475 154.468 19.811 154.836 19.283C155.22 18.755 155.684 18.363 156.228 18.107C156.772 17.851 157.364 17.723 158.004 17.723C158.292 17.723 158.524 17.739 158.7 17.771C158.876 17.787 159.052 17.827 159.228 17.891L159.204 20.531C158.9 20.403 158.636 20.323 158.412 20.291C158.204 20.259 157.94 20.243 157.62 20.243C156.932 20.243 156.348 20.387 155.868 20.675C155.404 20.963 155.052 21.363 154.812 21.875C154.588 22.387 154.476 22.971 154.476 23.627V30.083H151.452Z" fill="#233348"/>
<ellipse cx="20.5" cy="20.7835" rx="20.5" ry="20.7835" fill="#458FF6"/>
<path d="M19.344 31.0692V15.4952H13.286V12.7392H28.756V15.4952H22.698V31.0692H19.344Z" fill="white"/>
</svg>
